<?xml version="1.0" encoding="UTF-8"?>
<svg version="1.1" xmlns="http://www.w3.org/2000/svg" width="52" height="52">
<path d="M0 0 C3.95060975 2.80146509 7.33358974 5.88542897 8.8125 10.578125 C9.07707761 13.99558577 7.58508715 16.02003616 6 19 C5.57287706 23.00027807 5.57287706 23.00027807 7.96875 25.359375 C8.8040625 26.14828125 9.639375 26.9371875 10.5 27.75 C11.3353125 28.54921875 12.170625 29.3484375 13.03125 30.171875 C13.6809375 30.77515625 14.330625 31.3784375 15 32 C15.61875 31.690625 16.2375 31.38125 16.875 31.0625 C20.99361245 29.00319377 24.39507183 27.87488666 29 29 C32.94949616 31.80067542 36.3831289 34.87592839 37.7578125 39.609375 C38.07764066 42.76638841 37.6149408 44.26162213 36 47 C32.23322205 50.76677795 29.16725961 51.35246448 23.875 51.625 C13.7887515 51.3026085 4.86135546 46.26687292 -2 39 C-10.12538212 30.11912694 -14.80892512 21.98210834 -14.3984375 9.71484375 C-13.82301106 5.79404596 -12.66620418 3.90145749 -10 1 C-6.66282606 -0.66858697 -3.5620727 -0.87031445 0 0 Z M-8.62109375 5.7109375 C-11.14866241 9.90684468 -10.65951739 14.27031817 -10 19 C-6.13152994 30.70856938 2.82226438 38.60513956 13 45 C18.21216378 47.50804746 23.30415069 47.87956893 29 47 C31.35663599 45.55170336 32.34737146 44.27948765 34 42 C32.04697411 38.4845534 30.17031626 35.51760409 27 33 C24.5 32.33333333 24.5 32.33333333 22 33 C21.01 34.0209375 21.01 34.0209375 20 35.0625 C18 37 18 37 15.8046875 37.01171875 C11.67757538 35.52296939 9.17321477 32.83193396 6.125 29.75 C5.51914062 29.17636719 4.91328125 28.60273438 4.2890625 28.01171875 C0.00313884 23.73553583 0.00313884 23.73553583 -0.01171875 20.25390625 C1.25603913 17.42959621 2.95425215 15.30971532 5 13 C3.04697411 9.4845534 1.17031626 6.51760409 -2 4 C-5.18140626 3.3792378 -6.35744893 3.32183766 -8.62109375 5.7109375 Z " fill="#6F6F6F" transform="translate(14,0)"/>
</svg>
