<?xml version="1.0" encoding="UTF-8"?>
<svg version="1.1" xmlns="http://www.w3.org/2000/svg" width="270" height="291">
<path d="M0 0 C10.13566621 6.33264035 15.89656408 17.17575916 18.73828125 28.5625 C19.31070848 31.65174853 19.50067243 34.57093158 19.46875 37.7109375 C19.46254639 38.50677246 19.45634277 39.30260742 19.44995117 40.12255859 C19.4419751 40.72148926 19.43399902 41.32041992 19.42578125 41.9375 C20.00545654 41.92178955 20.58513184 41.9060791 21.18237305 41.88989258 C23.82590864 41.82727209 26.4692878 41.78842482 29.11328125 41.75 C30.02529297 41.72486328 30.93730469 41.69972656 31.87695312 41.67382812 C40.45808176 41.58021581 40.45808176 41.58021581 44.42578125 44.9375 C46.38535687 47.87686343 46.80172773 49.12997074 47.3203125 52.49487305 C47.4684288 53.43160858 47.6165451 54.36834412 47.76914978 55.33346558 C48.00136986 56.8757634 48.00136986 56.8757634 48.23828125 58.44921875 C48.4082814 59.53719757 48.57828156 60.62517639 48.75343323 61.74612427 C49.31813532 65.3713326 49.87215795 68.99808448 50.42578125 72.625 C50.81700566 75.15789227 51.20886205 77.69068699 51.60131836 80.22338867 C52.22188062 84.22979702 52.84193746 88.23627275 53.45848083 92.24330139 C54.90157837 101.6134919 56.38453121 110.9767784 57.88884354 120.33732414 C58.58702908 124.68782128 59.27988056 129.03917135 59.97274208 133.39051914 C60.53254464 136.90375842 61.09540082 140.41645066 61.6652832 143.92807007 C62.30534029 147.87363241 62.93044962 151.82143531 63.5546875 155.76953125 C63.74486954 156.92671661 63.93505157 158.08390198 64.1309967 159.27615356 C66.97194735 177.47408794 66.97194735 177.47408794 63.86328125 184.4375 C60.34671886 188.04423065 57.31822159 190.68943479 52.1484375 191.1328125 C48.09891894 190.9037216 46.14466983 190.55319883 42.9765625 187.83984375 C40.07485498 184.53820717 37.64145562 181.10952135 35.23828125 177.4375 C34.58182617 176.46103516 34.58182617 176.46103516 33.91210938 175.46484375 C31.6570379 172.05641511 29.76554264 168.82954425 28.42578125 164.9375 C31.04931643 163.93350476 33.6744592 162.93415555 36.30078125 161.9375 C37.04714844 161.65132812 37.79351562 161.36515625 38.5625 161.0703125 C44.19921875 158.9375 44.19921875 158.9375 46.42578125 158.9375 C46.42578125 157.9475 46.42578125 156.9575 46.42578125 155.9375 C45.77480469 155.71578125 45.12382812 155.4940625 44.453125 155.265625 C40.35931826 153.46963237 36.74179069 151.10307873 32.98828125 148.6875 C32.16859863 148.16462402 31.34891602 147.64174805 30.50439453 147.10302734 C28.73936725 145.97687293 26.97540619 144.84904605 25.21240234 143.71972656 C22.34654906 141.88682583 19.47490312 140.06332562 16.6015625 138.2421875 C14.66791369 137.01571181 12.7343188 135.78915109 10.80078125 134.5625 C9.90174072 133.99241211 9.0027002 133.42232422 8.07641602 132.83496094 C3.12379781 129.68509392 -1.76679386 126.47533805 -6.57958984 123.11474609 C-8.59108026 121.9275482 -10.29173621 121.37533269 -12.57421875 120.9375 C-9.77865746 143.96409694 -6.65890658 166.948269 -3.57421875 189.9375 C-2.62546875 189.174375 -1.67671875 188.41125 -0.69921875 187.625 C-0.16554688 187.19574219 0.368125 186.76648438 0.91796875 186.32421875 C2.67870232 184.81479455 2.67870232 184.81479455 4.42578125 181.9375 C5.08578125 181.9375 5.74578125 181.9375 6.42578125 181.9375 C6.69390625 181.31875 6.96203125 180.7 7.23828125 180.0625 C8.42578125 177.9375 8.42578125 177.9375 11.42578125 175.9375 C14.75806822 179.75574548 17.19892318 182.67946889 18.11328125 187.75 C17.42578125 190.9375 17.42578125 190.9375 15.36260986 192.61245728 C11.75945464 194.23813424 8.62518316 194.35899661 4.74902344 194.32568359 C3.61381508 194.33356903 3.61381508 194.33356903 2.45567322 194.34161377 C-0.03887769 194.35478429 -2.53278666 194.34608285 -5.02734375 194.3359375 C-6.76983766 194.33795993 -8.51233075 194.34087278 -10.25482178 194.34463501 C-13.90645406 194.34905508 -17.55786602 194.3426407 -21.20947266 194.32861328 C-25.87087305 194.31157237 -30.53175325 194.32133209 -35.19313431 194.33933067 C-38.7930079 194.3502206 -42.39276019 194.34669752 -45.99263763 194.3389473 C-47.71009127 194.33695701 -49.42755621 194.33936305 -51.14499664 194.34638596 C-71.11753601 194.41010606 -71.11753601 194.41010606 -77.35723877 189.54818726 C-81.82063979 185.03431837 -82.95212497 180.11792665 -83.57421875 173.9375 C-83.44852341 170.22445029 -82.9002401 166.63551902 -82.28833008 162.97436523 C-82.12763031 161.92731918 -81.96693054 160.88027313 -81.80136108 159.80149841 C-81.26947623 156.36355595 -80.71312133 152.93006965 -80.15625 149.49609375 C-79.77796666 147.08511444 -79.4011757 144.67390056 -79.02580261 142.26246643 C-78.03458767 135.92244417 -77.02233961 129.58595249 -76.00585938 123.24993896 C-74.98333195 116.85037287 -73.98221791 110.44746202 -72.97851562 104.04492188 C-71.02233069 91.6021033 -69.06023084 79.16052144 -67.02313614 66.7306633 C-66.59467911 64.06480435 -66.19136416 61.39630222 -65.79428101 58.72561646 C-65.5529433 57.18428508 -65.31124127 55.64301069 -65.0690918 54.10180664 C-64.8738945 52.79933487 -64.6786972 51.4968631 -64.47758484 50.15492249 C-63.47569014 46.58658119 -62.48269562 45.18021697 -59.57421875 42.9375 C-56.7501011 41.99612745 -55.04503843 41.82024618 -52.125 41.83984375 C-51.27744141 41.84306641 -50.42988281 41.84628906 -49.55664062 41.84960938 C-48.67556641 41.85798828 -47.79449219 41.86636719 -46.88671875 41.875 C-45.54770508 41.88176758 -45.54770508 41.88176758 -44.18164062 41.88867188 C-41.97909888 41.90045017 -39.77669276 41.91689836 -37.57421875 41.9375 C-37.53554687 40.97263672 -37.53554687 40.97263672 -37.49609375 39.98828125 C-36.64931979 26.49763256 -32.7208351 13.21632072 -22.44921875 3.9375 C-15.88565775 -1.54531401 -8.21153763 -3.38928412 0 0 Z M-20.69921875 13.125 C-27.65000347 21.64062107 -29.57421875 31.22397456 -29.57421875 41.9375 C-15.71421875 41.9375 -1.85421875 41.9375 12.42578125 41.9375 C11.2365495 28.85595071 8.7139438 17.56310232 -1.32421875 8.4375 C-9.08835341 3.26141023 -14.88347824 6.84166227 -20.69921875 13.125 Z " fill="#F5843D" transform="translate(144.57421875,1.0625)"/>
<path d="M0 0 C10.13566621 6.33264035 15.89656408 17.17575916 18.73828125 28.5625 C19.31070848 31.65174853 19.50067243 34.57093158 19.46875 37.7109375 C19.46254639 38.50677246 19.45634277 39.30260742 19.44995117 40.12255859 C19.4419751 40.72148926 19.43399902 41.32041992 19.42578125 41.9375 C20.00545654 41.92178955 20.58513184 41.9060791 21.18237305 41.88989258 C23.82590864 41.82727209 26.4692878 41.78842482 29.11328125 41.75 C30.02529297 41.72486328 30.93730469 41.69972656 31.87695312 41.67382812 C40.45808176 41.58021581 40.45808176 41.58021581 44.42578125 44.9375 C46.42578125 47.9375 46.42578125 47.9375 46.37890625 49.859375 C39.63824451 64.55622765 9.6878483 75.17364546 -4.82421875 80.625 C-17.63743376 85.2582919 -30.70155121 88.74877598 -44.26171875 90.25 C-44.94814453 90.32645752 -45.63457031 90.40291504 -46.34179688 90.48168945 C-54.39185209 91.2189929 -62.4992425 90.99504968 -70.57421875 90.9375 C-69.76423797 85.33125958 -68.94614946 79.7262843 -68.12060547 74.12231445 C-67.84104186 72.21671432 -67.56367602 70.31079039 -67.28857422 68.40454102 C-66.89220683 65.6607343 -66.48788674 62.91819854 -66.08203125 60.17578125 C-65.90065109 58.90206413 -65.90065109 58.90206413 -65.71560669 57.60261536 C-64.0548183 46.52197964 -64.0548183 46.52197964 -59.57421875 42.9375 C-56.7501011 41.99612745 -55.04503843 41.82024618 -52.125 41.83984375 C-51.27744141 41.84306641 -50.42988281 41.84628906 -49.55664062 41.84960938 C-48.67556641 41.85798828 -47.79449219 41.86636719 -46.88671875 41.875 C-45.54770508 41.88176758 -45.54770508 41.88176758 -44.18164062 41.88867188 C-41.97909888 41.90045017 -39.77669276 41.91689836 -37.57421875 41.9375 C-37.53554687 40.97263672 -37.53554687 40.97263672 -37.49609375 39.98828125 C-36.64931979 26.49763256 -32.7208351 13.21632072 -22.44921875 3.9375 C-15.88565775 -1.54531401 -8.21153763 -3.38928412 0 0 Z M-20.69921875 13.125 C-27.65000347 21.64062107 -29.57421875 31.22397456 -29.57421875 41.9375 C-15.71421875 41.9375 -1.85421875 41.9375 12.42578125 41.9375 C11.2365495 28.85595071 8.7139438 17.56310232 -1.32421875 8.4375 C-9.08835341 3.26141023 -14.88347824 6.84166227 -20.69921875 13.125 Z " fill="#B61269" transform="translate(144.57421875,1.0625)"/>
<path d="M0 0 C0.33 0 0.66 0 1 0 C3.62478048 16.23426596 6.23548918 32.47074408 8.83251953 48.70947266 C9.55658589 53.23575654 10.28362716 57.76153436 11.01513672 62.28662109 C11.7437529 66.79515852 12.4637541 71.30497407 13.17596436 75.81613159 C13.43039024 77.41815493 13.68799693 79.01967687 13.94903564 80.62063599 C17.6439879 103.3174671 17.6439879 103.3174671 14.4375 110.5 C10.92093761 114.10673065 7.89244034 116.75193479 2.72265625 117.1953125 C-1.32686231 116.9662216 -3.28111142 116.61569883 -6.44921875 113.90234375 C-9.35092627 110.60070717 -11.78432563 107.17202135 -14.1875 103.5 C-14.62513672 102.84902344 -15.06277344 102.19804687 -15.51367188 101.52734375 C-17.76874335 98.11891511 -19.66023861 94.89204425 -21 91 C-18.37646482 89.99600476 -15.75132205 88.99665555 -13.125 88 C-12.37863281 87.71382813 -11.63226563 87.42765625 -10.86328125 87.1328125 C-5.2265625 85 -5.2265625 85 -3 85 C-3 84.01 -3 83.02 -3 82 C-3.73645752 81.72309326 -4.47291504 81.44618652 -5.23168945 81.16088867 C-7.78283491 80.091068 -9.96187642 78.90369113 -12.29296875 77.42578125 C-13.47959106 76.67603027 -13.47959106 76.67603027 -14.69018555 75.91113281 C-15.51429932 75.38358398 -16.33841309 74.85603516 -17.1875 74.3125 C-18.03159424 73.77592773 -18.87568848 73.23935547 -19.74536133 72.68652344 C-25.60996252 68.93977331 -31.36104901 65.07935923 -37 61 C-36.45037598 60.2718811 -36.45037598 60.2718811 -35.88964844 59.52905273 C-26.51321213 47.07251395 -17.74752294 34.4570901 -10.06567383 20.87670898 C-9.35565889 19.62633445 -8.63671994 18.38098509 -7.90893555 17.14086914 C-5.91671592 13.73493537 -4.21707086 10.37378188 -2.8125 6.6875 C-1.04635762 2.09271523 -1.04635762 2.09271523 0 0 Z " fill="#2DA3B3" transform="translate(194,75)"/>
<path d="M0 0 C1.65 11.55 3.3 23.1 5 35 C10.7395857 30.69838381 10.7395857 30.69838381 13 27 C13.66 27 14.32 27 15 27 C15.4021875 26.071875 15.4021875 26.071875 15.8125 25.125 C17 23 17 23 20 21 C23.33228697 24.81824548 25.77314193 27.74196889 26.6875 32.8125 C26 36 26 36 23.94277954 37.6759491 C20.30783963 39.31142515 17.13622505 39.41403576 13.22802734 39.37231445 C12.46158401 39.37596512 11.69514069 39.37961578 10.9054718 39.38337708 C8.38206557 39.39145728 5.85930649 39.37789637 3.3359375 39.36328125 C1.57907105 39.36276244 -0.17779599 39.36328094 -1.93466187 39.36479187 C-5.61147763 39.36470227 -9.28807359 39.35429524 -12.96484375 39.33618164 C-17.68055726 39.31346145 -22.39595065 39.31295767 -27.11170387 39.31969929 C-30.73705904 39.32303792 -34.36234104 39.31641173 -37.98768234 39.30657005 C-39.72683708 39.30271845 -41.46599995 39.30156967 -43.20515823 39.3031559 C-45.63253601 39.30352616 -48.05950062 39.29091881 -50.48681641 39.2746582 C-51.56691734 39.27837433 -51.56691734 39.27837433 -52.6688385 39.28216553 C-56.33571006 39.24289945 -57.86155379 39.09229747 -61 37 C-60.50822266 36.74420166 -60.01644531 36.48840332 -59.50976562 36.22485352 C-53.65895045 33.17653535 -47.82649112 30.09451667 -42 27 C-41.29117676 26.62665527 -40.58235352 26.25331055 -39.85205078 25.86865234 C-26.83343708 18.97758214 -14.48210115 10.7922647 -2.98046875 1.58203125 C-1 0 -1 0 0 0 Z " fill="#10809F" transform="translate(136,156)"/>
<path d="M0 0 C5.0428125 -0.0928125 5.0428125 -0.0928125 10.1875 -0.1875 C11.76374146 -0.22846802 11.76374146 -0.22846802 13.37182617 -0.27026367 C22.10553644 -0.34814602 22.10553644 -0.34814602 26 3 C28.48386059 6.72579089 28.3804212 8.58711402 28 13 C26.5 15.9375 26.5 15.9375 25 18 C25.680625 18.639375 26.36125 19.27875 27.0625 19.9375 C29.42821348 23.67685357 29.25381246 25.55545834 28.84765625 29.81640625 C27.51788384 33.24194901 26.25167699 34.2179849 23 36 C19.04644744 36.48210384 15.16256487 36.37530367 11.1875 36.25 C7.495625 36.1675 3.80375 36.085 0 36 C0 24.12 0 12.24 0 0 Z M9 8 C9 9.98 9 11.96 9 14 C11.64 14 14.28 14 17 14 C17.38218767 12.34385343 17.71395102 10.67542976 18 9 C17.01732141 7.79438816 17.01732141 7.79438816 15.15234375 7.90234375 C13.1015625 7.93489583 11.05078125 7.96744792 9 8 Z M9 21 C9 23.64 9 26.28 9 29 C14.32170494 29.29562367 14.32170494 29.29562367 19 27 C18.65555119 24.52733235 18.65555119 24.52733235 18 22 C15.04335481 20.5216774 12.25770263 20.93967217 9 21 Z " fill="#FE9800" transform="translate(172,237)"/>
<path d="M0 0 C2.05617766 2.7253479 4 5.48188033 4 9 C0.30590333 9.22928876 -3.31278535 9.36979333 -7 9 C-9.25 6.9375 -9.25 6.9375 -11 5 C-14.71982929 5 -17.0050155 5.19759315 -19.9375 7.5625 C-21.46981744 11.07781649 -21.77155193 14.28185452 -21 18 C-19.1235883 21.21013047 -19.1235883 21.21013047 -16 23 C-12.32416555 23.17761741 -12.32416555 23.17761741 -9 22 C-8.34 21.01 -7.68 20.02 -7 19 C-4.3984375 18.70703125 -4.3984375 18.70703125 -1.375 18.8125 C0.12933594 18.85310547 0.12933594 18.85310547 1.6640625 18.89453125 C2.43492188 18.92933594 3.20578125 18.96414063 4 19 C2.39112383 25.2892432 -0.67011737 28.44674491 -6 32 C-12.67761867 33.60311062 -18.91943439 33.32868908 -25 30 C-29.15194021 26.46578748 -31.64475936 22.15344381 -32.25390625 16.74609375 C-32.5411849 10.67617384 -31.72751989 5.90463144 -28 1 C-19.77889314 -6.83148094 -8.94697419 -6.66637293 0 0 Z " fill="#06ADAF" transform="translate(34,241)"/>
<path d="M0 0 C0.99 0.66 1.98 1.32 3 2 C3.33 1.34 3.66 0.68 4 0 C6.97 0 9.94 0 13 0 C13 9.57 13 19.14 13 29 C10.03 29 7.06 29 4 29 C3.67 28.34 3.34 27.68 3 27 C2.360625 27.515625 1.72125 28.03125 1.0625 28.5625 C-3.19956028 30.56305891 -6.55275684 30.55536272 -11 29 C-14.76718633 26.00034851 -17.12377621 22.7579894 -18 18 C-18.57497564 12.02025332 -17.34467254 7.88498226 -14 3 C-10.0020598 -0.65525961 -5.18946687 -0.74829391 0 0 Z M-6.25 9.625 C-8.49369241 12.67001113 -8.5518663 14.29461199 -8 18 C-7 20 -7 20 -5 21 C-2 21.66666667 -2 21.66666667 1 21 C3.18792354 18.96493065 3.18792354 18.96493065 4 16 C3.23827309 12.46835704 2.56128588 10.56128588 0 8 C-3.92212225 7.60967296 -3.92212225 7.60967296 -6.25 9.625 Z " fill="#FE9800" transform="translate(221,244)"/>
<path d="M0 0 C1.14662109 -0.00773438 1.14662109 -0.00773438 2.31640625 -0.015625 C4.4375 0.25 4.4375 0.25 7.4375 2.25 C7.7675 1.59 8.0975 0.93 8.4375 0.25 C11.4075 0.25 14.3775 0.25 17.4375 0.25 C17.4375 9.82 17.4375 19.39 17.4375 29.25 C13.4375 29.25 9.4375 29.25 5.4375 29.25 C4.7775 29.58 4.1175 29.91 3.4375 30.25 C-0.73683895 30.65137875 -3.05801713 30.51194303 -6.8125 28.5625 C-10.5031549 25.45899474 -12.32471066 22.96165478 -12.99609375 18.12890625 C-13.0094135 6.82043887 -13.0094135 6.82043887 -8.5625 2.25 C-5.62702426 0.46399476 -3.42136131 -0.02315642 0 0 Z M-1.25 9.375 C-3.09964743 12.01735347 -3.43159762 14.04289179 -3.5625 17.25 C-2.66014165 19.73105194 -2.66014165 19.73105194 -0.5625 21.25 C2.4375 21.91666667 2.4375 21.91666667 5.4375 21.25 C7.7526023 19.16640793 8.34026165 17.80564772 8.875 14.75 C8.29096694 11.41266821 7.12064062 10.26235546 4.4375 8.25 C0.65417976 7.88019987 0.65417976 7.88019987 -1.25 9.375 Z " fill="#06ADAF" transform="translate(75.5625,243.75)"/>
<path d="M0 0 C3.3 0 6.6 0 10 0 C10.81381795 1.93694678 11.62600916 3.87457711 12.4375 5.8125 C13.11619141 7.43091797 13.11619141 7.43091797 13.80859375 9.08203125 C14.60375013 11.0295126 15.33479648 13.00438943 16 15 C16.81381795 13.06305322 17.62600916 11.12542289 18.4375 9.1875 C18.88996094 8.10855469 19.34242188 7.02960938 19.80859375 5.91796875 C20.60375013 3.9704874 21.33479648 1.99561057 22 0 C25.63 0 29.26 0 33 0 C29.36137934 9.74493117 25.35471314 19.28529701 21.1875 28.8125 C20.58373105 30.19845738 19.98021411 31.58452457 19.37695312 32.97070312 C17.92085876 36.31506738 16.46140518 39.65795242 15 43 C11.7 43 8.4 43 5 43 C5.45896918 39.44298887 6.58821819 36.87130728 8.25 33.75 C9.73555813 30.41973782 10.31965298 28.49814932 9.1875 25 C8.48823493 23.3205685 7.75209193 21.65644787 7 20 C6.08117352 17.82215868 5.17738157 15.63849409 4.27661133 13.453125 C3.63982637 11.91542397 2.99397996 10.38144056 2.33862305 8.8515625 C0 3.32743339 0 3.32743339 0 0 Z " fill="#FE9800" transform="translate(237,244)"/>
<path d="M0 0 C3.3 0 6.6 0 10 0 C10.81381795 1.93694678 11.62600916 3.87457711 12.4375 5.8125 C13.11619141 7.43091797 13.11619141 7.43091797 13.80859375 9.08203125 C14.60375013 11.0295126 15.33479648 13.00438943 16 15 C16.81381795 13.06305322 17.62600916 11.12542289 18.4375 9.1875 C18.88996094 8.10855469 19.34242188 7.02960938 19.80859375 5.91796875 C20.60375013 3.9704874 21.33479648 1.99561057 22 0 C25.63 0 29.26 0 33 0 C29.36137934 9.74493117 25.35471314 19.28529701 21.1875 28.8125 C20.58373105 30.19845738 19.98021411 31.58452457 19.37695312 32.97070312 C17.92085876 36.31506738 16.46140518 39.65795242 15 43 C11.7 43 8.4 43 5 43 C5.45896918 39.44298887 6.58821819 36.87130728 8.25 33.75 C9.73555813 30.41973782 10.31965298 28.49814932 9.1875 25 C8.48823493 23.3205685 7.75209193 21.65644787 7 20 C6.08117352 17.82215868 5.17738157 15.63849409 4.27661133 13.453125 C3.63982637 11.91542397 2.99397996 10.38144056 2.33862305 8.8515625 C0 3.32743339 0 3.32743339 0 0 Z " fill="#06ADAF" transform="translate(135,244)"/>
<path d="M0 0 C3.3 0 6.6 0 10 0 C10 2.31 10 4.62 10 7 C11.98 7 13.96 7 16 7 C16 9.64 16 12.28 16 15 C14.02 15 12.04 15 10 15 C10 19.29 10 23.58 10 28 C11.98 28 13.96 28 16 28 C16 30.64 16 33.28 16 36 C5.93690852 36.62460568 5.93690852 36.62460568 2.375 34.25 C-0.2166768 30.00907433 -0.11161544 26.16154385 -0.0625 21.25 C-0.05347656 20.07953125 -0.04445313 18.9090625 -0.03515625 17.703125 C-0.02355469 16.81109375 -0.01195313 15.9190625 0 15 C-0.99 15 -1.98 15 -3 15 C-3 12.36 -3 9.72 -3 7 C-2.01 7 -1.02 7 0 7 C0 4.69 0 2.38 0 0 Z " fill="#06ADAF" transform="translate(118,237)"/>
<path d="M0 0 C0 2.64 0 5.28 0 8 C-0.639375 8.12375 -1.27875 8.2475 -1.9375 8.375 C-2.618125 8.58125 -3.29875 8.7875 -4 9 C-4.33 9.66 -4.66 10.32 -5 11 C-3.35 11 -1.7 11 0 11 C0 13.64 0 16.28 0 19 C-1.65 19 -3.3 19 -5 19 C-5 25.93 -5 32.86 -5 40 C-7.97 40 -10.94 40 -14 40 C-14 33.07 -14 26.14 -14 19 C-15.32 19 -16.64 19 -18 19 C-18 16.36 -18 13.72 -18 11 C-16.68 11 -15.36 11 -14 11 C-14.12375 10.113125 -14.2475 9.22625 -14.375 8.3125 C-14 5 -14 5 -11.5 2.125 C-7.73370912 -0.69521302 -4.56544748 -0.39357306 0 0 Z " fill="#06ADAF" transform="translate(114,233)"/>
<path d="M0 0 C0.495 1.485 0.495 1.485 1 3 C-31.49825989 30.9672525 -73.57200863 43.97785383 -116 43 C-115.505 40.03 -115.505 40.03 -115 37 C-113.97567871 37.02356567 -113.97567871 37.02356567 -112.93066406 37.04760742 C-71.05682125 37.87877164 -32.81246193 27.00325174 0 0 Z " fill="#6C1048" transform="translate(190,49)"/>
<path d="M0 0 C3.3 0 6.6 0 10 0 C10.33 0.66 10.66 1.32 11 2 C11.99 1.34 12.98 0.68 14 0 C15.65 0 17.3 0 19 0 C19 3.3 19 6.6 19 10 C16.36 10.66 13.72 11.32 11 12 C10.67 17.61 10.34 23.22 10 29 C6.7 29 3.4 29 0 29 C0 19.43 0 9.86 0 0 Z " fill="#06AEAF" transform="translate(42,244)"/>
<path d="M0 0 C2 3 2 3 1.9609375 4.90625 C-5.15327109 20.40712725 -37.47244886 32.68771818 -51.66601562 39.81762695 C-53.62364013 40.80933987 -55.55894741 41.84493902 -57.48828125 42.890625 C-60 44 -60 44 -62.875 43.1875 C-63.57625 42.795625 -64.2775 42.40375 -65 42 C-62.63668871 39.33727781 -60.26021991 37.98509397 -57.0546875 36.46875 C-56.06847412 35.9936499 -55.08226074 35.5185498 -54.06616211 35.02905273 C-53.01307861 34.52446533 -51.95999512 34.01987793 -50.875 33.5 C-32.51994539 24.50376563 -15.60520897 13.21351533 0 0 Z " fill="#D12A24" transform="translate(134,150)"/>
<path d="M0 0 C0.66 0.33 1.32 0.66 2 1 C-3.38516767 19.84808685 -14.94511272 36.64508234 -26.375 52.3125 C-26.97006348 53.13145752 -27.56512695 53.95041504 -28.17822266 54.79418945 C-28.74589355 55.55948975 -29.31356445 56.32479004 -29.8984375 57.11328125 C-30.65133057 58.13095581 -30.65133057 58.13095581 -31.41943359 59.16918945 C-33.10547818 61.12217808 -34.88751348 62.52971167 -37 64 C-37.99 63.01 -38.98 62.02 -40 61 C-39.39414063 60.35675781 -38.78828125 59.71351563 -38.1640625 59.05078125 C-21.83479182 41.44029087 -9.31758922 22.15071058 0 0 Z " fill="#D22C25" transform="translate(193,72)"/>
<path d="M0 0 C0.66 0.33 1.32 0.66 2 1 C-1.29339059 12.52686707 -7.33340339 26.71162334 -15 36 C-17.171875 36.75390625 -17.171875 36.75390625 -19 37 C-17.73352775 34.40068079 -16.38198691 31.9129104 -14.86328125 29.453125 C-9.06372543 19.92071851 -4.20092236 10.33538183 0 0 Z " fill="#D2322A" transform="translate(193,72)"/>
<path d="M0 0 C0.66 0.33 1.32 0.66 2 1 C0.36041242 6.23272633 -1.38952035 11.15196636 -4 16 C-4.66 15.34 -5.32 14.68 -6 14 C-4.02 9.38 -2.04 4.76 0 0 Z " fill="#CF4033" transform="translate(193,72)"/>
<path d="M0 0 C0.66 0.33 1.32 0.66 2 1 C1.67 1.99 1.34 2.98 1 4 C-1.5625 5.1875 -1.5625 5.1875 -4 6 C-4 4.68 -4 3.36 -4 2 C-2.125 0.9375 -2.125 0.9375 0 0 Z " fill="#761A4F" transform="translate(159,69)"/>
</svg>
