<?xml version="1.0" encoding="UTF-8"?>
<svg version="1.1" xmlns="http://www.w3.org/2000/svg" width="350" height="82">
<path d="M0 0 C4.0090453 0.99278815 5.99342956 4.12949363 8.06640625 7.51171875 C9.88663027 11.64859151 10.06640625 13.86964994 10.06640625 18.51171875 C13.36640625 18.51171875 16.66640625 18.51171875 20.06640625 18.51171875 C21.71357405 21.80605435 22.40323656 23.57481171 22.93603516 27.0456543 C23.07602936 27.93725754 23.21602356 28.82886078 23.36026001 29.7474823 C23.50305389 30.70479752 23.64584778 31.66211273 23.79296875 32.6484375 C23.94551117 33.64245071 24.09805359 34.63646393 24.25521851 35.66059875 C24.57615677 37.76402936 24.89366957 39.86798507 25.20800781 41.97241211 C25.68723521 45.17137598 26.18070513 48.36790838 26.67578125 51.56445312 C26.98654123 53.61315036 27.29646384 55.66197482 27.60546875 57.7109375 C27.82573227 59.13172859 27.82573227 59.13172859 28.05044556 60.58122253 C29.8854112 73.03528292 29.8854112 73.03528292 29.06640625 77.51171875 C27.1925449 79.88463471 26.29034754 80.45064385 23.31640625 81.26171875 C18.66387092 80.18805675 17.13432321 77.42251461 14.38671875 73.67578125 C13.06640625 71.51171875 13.06640625 71.51171875 13.06640625 69.51171875 C15.37640625 68.52171875 17.68640625 67.53171875 20.06640625 66.51171875 C17.17078008 64.74054651 14.27486835 62.96984168 11.37890625 61.19921875 C10.56228516 60.69970703 9.74566406 60.20019531 8.90429688 59.68554688 C4.96744879 57.27880979 1.02882003 54.87625488 -2.93359375 52.51171875 C-2.45829776 56.26221995 -1.97768573 60.01202122 -1.49609375 63.76171875 C-1.36138672 64.82519531 -1.22667969 65.88867188 -1.08789062 66.984375 C-0.95576172 68.00917969 -0.82363281 69.03398438 -0.6875 70.08984375 C-0.56705322 71.0324707 -0.44660645 71.97509766 -0.32250977 72.94628906 C0.01745994 75.18885133 0.47034699 77.32541838 1.06640625 79.51171875 C2.38640625 77.86171875 3.70640625 76.21171875 5.06640625 74.51171875 C6.05640625 74.84171875 7.04640625 75.17171875 8.06640625 75.51171875 C8.39640625 77.49171875 8.72640625 79.47171875 9.06640625 81.51171875 C6.04902511 83.02040932 2.92036452 82.69523766 -0.390625 82.71484375 C-1.13060226 82.72054382 -1.87057953 82.7262439 -2.63298035 82.7321167 C-4.20069956 82.74156893 -5.76843866 82.74810157 -7.33618164 82.75195312 C-9.72643082 82.76163907 -12.1158128 82.7926507 -14.50585938 82.82421875 C-16.02994282 82.83075098 -17.5540324 82.83600059 -19.078125 82.83984375 C-19.78975296 82.85219055 -20.50138092 82.86453735 -21.23457336 82.8772583 C-26.05940866 82.85577084 -29.46375823 81.98155427 -32.93359375 78.51171875 C-33.44965974 71.15252049 -32.63665112 63.98740978 -31.47265625 56.734375 C-31.2467128 55.27371864 -31.2467128 55.27371864 -31.01620483 53.78355408 C-30.69910027 51.74691336 -30.37790114 49.71090619 -30.05273438 47.67553711 C-29.5562421 44.55945934 -29.07609397 41.44116099 -28.59765625 38.32226562 C-28.28611924 36.33448425 -27.97365247 34.34684832 -27.66015625 32.359375 C-27.51736237 31.43020767 -27.37456848 30.50104034 -27.22744751 29.54371643 C-27.08745331 28.67858932 -26.94745911 27.81346222 -26.80322266 26.92211914 C-26.68330963 26.16475967 -26.56339661 25.40740021 -26.43984985 24.62709045 C-25.93359375 22.51171875 -25.93359375 22.51171875 -23.93359375 18.51171875 C-20.63359375 18.51171875 -17.33359375 18.51171875 -13.93359375 18.51171875 C-13.85109375 17.17109375 -13.76859375 15.83046875 -13.68359375 14.44921875 C-13.1426036 9.5493937 -11.7371984 6.5522078 -8.93359375 2.51171875 C-5.7883841 0.41491232 -3.76566885 -0.09015413 0 0 Z M-5.49609375 4.88671875 C-8.92083386 8.5749004 -10.93359375 13.39925589 -10.93359375 18.51171875 C-4.99359375 18.51171875 0.94640625 18.51171875 7.06640625 18.51171875 C5.73577935 10.71991157 5.73577935 10.71991157 1.06640625 4.51171875 C-1.82118552 2.92820068 -2.58044021 3.32222173 -5.49609375 4.88671875 Z " fill="#F4853E" transform="translate(32.93359375,-0.51171875)"/>
<path d="M0 0 C4.0090453 0.99278815 5.99342956 4.12949363 8.06640625 7.51171875 C9.88663027 11.64859151 10.06640625 13.86964994 10.06640625 18.51171875 C13.36640625 18.51171875 16.66640625 18.51171875 20.06640625 18.51171875 C20.56140625 20.49171875 20.56140625 20.49171875 21.06640625 22.51171875 C9.06675766 33.75925262 -9.43729896 40.05100997 -25.6953125 39.6171875 C-26.43394531 39.58238281 -27.17257813 39.54757813 -27.93359375 39.51171875 C-27.65126014 36.76046786 -27.35812042 34.01110538 -27.05859375 31.26171875 C-26.97996094 30.48441406 -26.90132812 29.70710938 -26.8203125 28.90625 C-26.73652344 28.15214844 -26.65273438 27.39804687 -26.56640625 26.62109375 C-26.45643311 25.5842041 -26.45643311 25.5842041 -26.34423828 24.52636719 C-25.93359375 22.51171875 -25.93359375 22.51171875 -23.93359375 18.51171875 C-20.63359375 18.51171875 -17.33359375 18.51171875 -13.93359375 18.51171875 C-13.85109375 17.17109375 -13.76859375 15.83046875 -13.68359375 14.44921875 C-13.1426036 9.5493937 -11.7371984 6.5522078 -8.93359375 2.51171875 C-5.7883841 0.41491232 -3.76566885 -0.09015413 0 0 Z M-5.49609375 4.88671875 C-8.92083386 8.5749004 -10.93359375 13.39925589 -10.93359375 18.51171875 C-4.99359375 18.51171875 0.94640625 18.51171875 7.06640625 18.51171875 C5.73577935 10.71991157 5.73577935 10.71991157 1.06640625 4.51171875 C-1.82118552 2.92820068 -2.58044021 3.32222173 -5.49609375 4.88671875 Z " fill="#EA137E" transform="translate(32.93359375,-0.51171875)"/>
<path d="M0 0 C3.50625 -0.103125 7.0125 -0.20625 10.625 -0.3125 C11.71893066 -0.35802002 12.81286133 -0.40354004 13.93994141 -0.45043945 C22.01761039 -0.56528432 22.01761039 -0.56528432 25.67578125 2.234375 C28.69767535 5.83017504 28.70122572 7.42825818 28.41015625 11.90625 C27.89281064 14.54717617 26.93894214 16.14184712 25 18 C25.66 18.680625 26.32 19.36125 27 20.0625 C29.50978123 23.74874118 29.62608836 25.61738151 29 30 C27.20437595 32.75329021 25.94745078 34.52627461 23 36 C21.2595583 36.08449628 19.51590278 36.10723024 17.7734375 36.09765625 C16.3800415 36.09390991 16.3800415 36.09390991 14.95849609 36.09008789 C13.77594238 36.08098389 12.59338867 36.07187988 11.375 36.0625 C5.744375 36.0315625 5.744375 36.0315625 0 36 C0 24.12 0 12.24 0 0 Z M9 8 C9 9.98 9 11.96 9 14 C11.64 14 14.28 14 17 14 C17.66 12.68 18.32 11.36 19 10 C17.23863645 7.81668311 17.23863645 7.81668311 15.0546875 7.8046875 C12.02734375 7.90234375 12.02734375 7.90234375 9 8 Z M9 21 C9 23.64 9 26.28 9 29 C14.32170494 29.29562367 14.32170494 29.29562367 19 27 C18.65555119 24.52733235 18.65555119 24.52733235 18 22 C15.04335481 20.5216774 12.25770263 20.93967217 9 21 Z " fill="#FE9800" transform="translate(251,26)"/>
<path d="M0 0 C2.05617766 2.7253479 4 5.48188033 4 9 C0.30590333 9.22928876 -3.31278535 9.36979333 -7 9 C-9.25 6.9375 -9.25 6.9375 -11 5 C-14.71982929 5 -17.0050155 5.19759315 -19.9375 7.5625 C-21.46981744 11.07781649 -21.77155193 14.28185452 -21 18 C-19.1235883 21.21013047 -19.1235883 21.21013047 -16 23 C-12.32416555 23.17761741 -12.32416555 23.17761741 -9 22 C-8.34 21.01 -7.68 20.02 -7 19 C-4.3984375 18.70703125 -4.3984375 18.70703125 -1.375 18.8125 C0.12933594 18.85310547 0.12933594 18.85310547 1.6640625 18.89453125 C2.43492188 18.92933594 3.20578125 18.96414062 4 19 C2.39112383 25.2892432 -0.67011737 28.44674491 -6 32 C-12.67761867 33.60311062 -18.91943439 33.32868908 -25 30 C-29.15194021 26.46578748 -31.64475936 22.15344381 -32.25390625 16.74609375 C-32.5411849 10.67617384 -31.72751989 5.90463144 -28 1 C-19.77889314 -6.83148094 -8.94697419 -6.66637293 0 0 Z " fill="#06ADAF" transform="translate(113,30)"/>
<path d="M0 0 C1.14662109 -0.00773437 1.14662109 -0.00773437 2.31640625 -0.015625 C4.4375 0.25 4.4375 0.25 7.4375 2.25 C7.7675 1.59 8.0975 0.93 8.4375 0.25 C11.4075 0.25 14.3775 0.25 17.4375 0.25 C17.4375 9.82 17.4375 19.39 17.4375 29.25 C13.4375 29.25 9.4375 29.25 5.4375 29.25 C4.7775 29.58 4.1175 29.91 3.4375 30.25 C-0.73683895 30.65137875 -3.05801713 30.51194303 -6.8125 28.5625 C-10.5031549 25.45899474 -12.32471066 22.96165478 -12.99609375 18.12890625 C-13.0094135 6.82043887 -13.0094135 6.82043887 -8.5625 2.25 C-5.62702426 0.46399476 -3.42136131 -0.02315642 0 0 Z M-1.25 9.375 C-3.09964743 12.01735347 -3.43159762 14.04289179 -3.5625 17.25 C-2.66014165 19.73105194 -2.66014165 19.73105194 -0.5625 21.25 C2.4375 21.91666667 2.4375 21.91666667 5.4375 21.25 C7.7526023 19.16640793 8.34026165 17.80564772 8.875 14.75 C8.29096694 11.41266821 7.12064062 10.26235546 4.4375 8.25 C0.65417976 7.88019987 0.65417976 7.88019987 -1.25 9.375 Z " fill="#FE9800" transform="translate(295.5625,32.75)"/>
<path d="M0 0 C1.14662109 -0.00773437 1.14662109 -0.00773437 2.31640625 -0.015625 C4.4375 0.25 4.4375 0.25 7.4375 2.25 C7.7675 1.59 8.0975 0.93 8.4375 0.25 C11.4075 0.25 14.3775 0.25 17.4375 0.25 C17.4375 9.82 17.4375 19.39 17.4375 29.25 C13.4375 29.25 9.4375 29.25 5.4375 29.25 C4.7775 29.58 4.1175 29.91 3.4375 30.25 C-0.73683895 30.65137875 -3.05801713 30.51194303 -6.8125 28.5625 C-10.5031549 25.45899474 -12.32471066 22.96165478 -12.99609375 18.12890625 C-13.0094135 6.82043887 -13.0094135 6.82043887 -8.5625 2.25 C-5.62702426 0.46399476 -3.42136131 -0.02315642 0 0 Z M-1.25 9.375 C-3.09964743 12.01735347 -3.43159762 14.04289179 -3.5625 17.25 C-2.66014165 19.73105194 -2.66014165 19.73105194 -0.5625 21.25 C2.4375 21.91666667 2.4375 21.91666667 5.4375 21.25 C7.7526023 19.16640793 8.34026165 17.80564772 8.875 14.75 C8.29096694 11.41266821 7.12064062 10.26235546 4.4375 8.25 C0.65417976 7.88019987 0.65417976 7.88019987 -1.25 9.375 Z " fill="#06ADAF" transform="translate(154.5625,32.75)"/>
<path d="M0 0 C3.3 0 6.6 0 10 0 C14.28571429 9.57142857 14.28571429 9.57142857 16 14 C18.39990024 11.60009976 18.9662213 9.63463217 20.0625 6.4375 C21.90277778 1.09722222 21.90277778 1.09722222 23 0 C24.68608966 -0.07205511 26.37500659 -0.08386068 28.0625 -0.0625 C28.98160156 -0.05347656 29.90070313 -0.04445312 30.84765625 -0.03515625 C31.55792969 -0.02355469 32.26820313 -0.01195312 33 0 C30.50141076 8.14355011 27.18956747 15.89931552 23.84716797 23.72314453 C22.86622299 26.0205561 21.89174611 28.32063625 20.91796875 30.62109375 C20.29725171 32.0808894 19.67617142 33.54053067 19.0546875 35 C18.76302704 35.68843994 18.47136658 36.37687988 18.17086792 37.08618164 C16.1154723 41.8845277 16.1154723 41.8845277 15 43 C13.31391034 43.07205511 11.62499341 43.08386068 9.9375 43.0625 C9.01839844 43.05347656 8.09929687 43.04445312 7.15234375 43.03515625 C6.44207031 43.02355469 5.73179687 43.01195312 5 43 C5.45445964 41.58208592 5.91374944 40.16571954 6.375 38.75 C6.63023437 37.96109375 6.88546875 37.1721875 7.1484375 36.359375 C8 34 8 34 9.1640625 32.078125 C11.01680364 27.47224515 8.75610655 23.23018082 6.93359375 18.92578125 C6.10817888 17.05175934 5.27595401 15.18072448 4.4375 13.3125 C3.59789439 11.43580946 2.7630292 9.55698879 1.93359375 7.67578125 C1.56290771 6.84989502 1.19222168 6.02400879 0.81030273 5.1730957 C0 3 0 3 0 0 Z " fill="#FE9800" transform="translate(316,33)"/>
<path d="M0 0 C3.3 0 6.6 0 10 0 C14.28571429 9.57142857 14.28571429 9.57142857 16 14 C18.39990024 11.60009976 18.9662213 9.63463217 20.0625 6.4375 C21.90277778 1.09722222 21.90277778 1.09722222 23 0 C24.68608966 -0.07205511 26.37500659 -0.08386068 28.0625 -0.0625 C28.98160156 -0.05347656 29.90070313 -0.04445312 30.84765625 -0.03515625 C31.55792969 -0.02355469 32.26820313 -0.01195312 33 0 C30.50141076 8.14355011 27.18956747 15.89931552 23.84716797 23.72314453 C22.86622299 26.0205561 21.89174611 28.32063625 20.91796875 30.62109375 C20.29725171 32.0808894 19.67617142 33.54053067 19.0546875 35 C18.76302704 35.68843994 18.47136658 36.37687988 18.17086792 37.08618164 C16.1154723 41.8845277 16.1154723 41.8845277 15 43 C13.31391034 43.07205511 11.62499341 43.08386068 9.9375 43.0625 C9.01839844 43.05347656 8.09929687 43.04445312 7.15234375 43.03515625 C6.44207031 43.02355469 5.73179687 43.01195312 5 43 C5.45445964 41.58208592 5.91374944 40.16571954 6.375 38.75 C6.63023437 37.96109375 6.88546875 37.1721875 7.1484375 36.359375 C8 34 8 34 9.1640625 32.078125 C11.01680364 27.47224515 8.75610655 23.23018082 6.93359375 18.92578125 C6.10817888 17.05175934 5.27595401 15.18072448 4.4375 13.3125 C3.59789439 11.43580946 2.7630292 9.55698879 1.93359375 7.67578125 C1.56290771 6.84989502 1.19222168 6.02400879 0.81030273 5.1730957 C0 3 0 3 0 0 Z " fill="#06ADAF" transform="translate(214,33)"/>
<path d="M0 0 C2.26135868 3.39203802 2.714884 6.26421855 3.2890625 10.1953125 C3.39721283 10.90219208 3.50536316 11.60907166 3.61679077 12.33737183 C3.84391526 13.8347118 4.06726311 15.3326288 4.28710938 16.83105469 C4.62094076 19.09744174 4.96967408 21.36115981 5.3203125 23.625 C7.59318716 38.5853016 7.59318716 38.5853016 7 45 C5.1126503 47.35047786 4.21839687 47.94043722 1.25 48.75 C-3.40253533 47.676338 -4.93208304 44.91079586 -7.6796875 41.1640625 C-9 39 -9 39 -9 37 C-6.69 36.01 -4.38 35.02 -2 34 C-8.435 30.04 -8.435 30.04 -15 26 C-13.10957702 22.21915405 -10.94181431 18.77020129 -8.625 15.25 C-5.39739191 10.29803568 -2.47496683 5.38036267 0 0 Z " fill="#2CA3B3" transform="translate(55,32)"/>
<path d="M0 0 C0 2.64 0 5.28 0 8 C-1.32 8 -2.64 8 -4 8 C-4 8.66 -4 9.32 -4 10 C-2.68 10.33 -1.36 10.66 0 11 C0 13.64 0 16.28 0 19 C-1.65 19 -3.3 19 -5 19 C-5 25.93 -5 32.86 -5 40 C-7.97 40 -10.94 40 -14 40 C-14 33.07 -14 26.14 -14 19 C-14.99 19 -15.98 19 -17 19 C-17 16.36 -17 13.72 -17 11 C-16.01 11 -15.02 11 -14 11 C-13.9071875 9.39125 -13.9071875 9.39125 -13.8125 7.75 C-13 4 -13 4 -10.9375 1.5625 C-6.98715265 -0.53874859 -4.43222695 -0.30048996 0 0 Z " fill="#06ADAE" transform="translate(193,22)"/>
<path d="M0 0 C2.97 0 5.94 0 9 0 C9 2.31 9 4.62 9 7 C10.98 7 12.96 7 15 7 C15 9.64 15 12.28 15 15 C13.02 15 11.04 15 9 15 C9.33 18.96 9.66 22.92 10 27 C11.65 27.33 13.3 27.66 15 28 C15 30.64 15 33.28 15 36 C13.43997572 36.1363128 11.87642824 36.23259126 10.3125 36.3125 C9.44238281 36.37050781 8.57226562 36.42851563 7.67578125 36.48828125 C3.70617977 35.76390142 2.35531381 34.23014466 0 31 C-0.57543928 28.1930753 -0.47804032 25.53734026 -0.3125 22.6875 C-0.28994141 21.94693359 -0.26738281 21.20636719 -0.24414062 20.44335938 C-0.1855815 18.62802643 -0.09590886 16.81374319 0 15 C-1.32 15 -2.64 15 -4 15 C-4 12.36 -4 9.72 -4 7 C-2.68 7 -1.36 7 0 7 C0 4.69 0 2.38 0 0 Z " fill="#06ADAE" transform="translate(198,26)"/>
<path d="M0 0 C-9.37079522 10.2226857 -26.54749919 17.45115223 -40.34765625 18.17578125 C-43.23956353 18.18592829 -46.11164138 18.13610067 -49 18 C-48.505 13.545 -48.505 13.545 -48 9 C-43.76598571 7.38704217 -40.49069968 7 -36 7 C-34.31422289 6.38325228 -32.64551962 5.71727778 -31 5 C-29.33871537 4.64080332 -27.67099977 4.31088368 -26 4 C-24.04162981 3.51843356 -22.0834233 3.03603647 -20.12890625 2.5390625 C-18.68024923 2.17224659 -17.22961827 1.81315874 -15.77734375 1.4609375 C-6.11815972 -0.88811996 -6.11815972 -0.88811996 0 0 Z " fill="#8B1157" transform="translate(54,21)"/>
<path d="M0 0 C2.97 0 5.94 0 9 0 C9.33 0.66 9.66 1.32 10 2 C10.86625 1.505 10.86625 1.505 11.75 1 C14 0 14 0 18 0 C18 3.3 18 6.6 18 10 C15.36 10.33 12.72 10.66 10 11 C9.67 16.94 9.34 22.88 9 29 C6.03 29 3.06 29 0 29 C0 19.43 0 9.86 0 0 Z " fill="#06ADAE" transform="translate(122,33)"/>
<path d="M0 0 C2.52480693 2.52480693 2.55738633 4.13823034 3.125 7.625 C3.29257812 8.62789062 3.46015625 9.63078125 3.6328125 10.6640625 C3.75398438 11.43492188 3.87515625 12.20578125 4 13 C5.32 11.35 6.64 9.7 8 8 C8.99 8.33 9.98 8.66 11 9 C11.495 11.97 11.495 11.97 12 15 C8.93405406 16.53297297 5.72888147 16.12131455 2.3671875 16.09765625 C1.23943405 16.09553383 1.23943405 16.09553383 0.08889771 16.09336853 C-2.3157751 16.08776465 -4.72035527 16.07521157 -7.125 16.0625 C-8.75390491 16.0574855 -10.38281127 16.0529225 -12.01171875 16.04882812 C-16.00784827 16.03779397 -20.00390842 16.02052679 -24 16 C-24 15.34 -24 14.68 -24 14 C-23.27296875 13.6596875 -22.5459375 13.319375 -21.796875 12.96875 C-14.0341706 9.22672839 -7.05891811 4.93123003 0 0 Z " fill="#0E7F9E" transform="translate(30,66)"/>
<path d="M0 0 C0.98484375 0.01804687 1.9696875 0.03609375 2.984375 0.0546875 C4.10585937 0.08949219 4.10585937 0.08949219 5.25 0.125 C5.745 1.61 5.745 1.61 6.25 3.125 C2.96303767 3.92453138 1.53976808 4.22158936 -1.75 3.125 C-3.09246312 3.77308564 -4.42432801 4.44322584 -5.75 5.125 C-7.74488234 5.48770588 -9.74598989 5.81669075 -11.75 6.125 C-14.42380346 6.77188793 -17.08770719 7.43440525 -19.75 8.125 C-27.05139647 10.01897126 -34.27140444 11.22241088 -41.75 12.125 C-41.42 10.145 -41.09 8.165 -40.75 6.125 C-35.42112388 4.30833769 -30.57625466 3.03220147 -24.97265625 2.3828125 C-23.43703972 2.20469178 -21.9031803 2.0109783 -20.37109375 1.8046875 C-19.58863281 1.70414063 -18.80617188 1.60359375 -18 1.5 C-17.28328125 1.40460937 -16.5665625 1.30921875 -15.828125 1.2109375 C-13.75 1.125 -13.75 1.125 -11.734375 1.7265625 C-8.13770499 2.44872853 -4.10291622 -0.09768848 0 0 Z " fill="#BF126C" transform="translate(47.75,17.875)"/>
<path d="M0 0 C0.66 0.33 1.32 0.66 2 1 C-10.77643281 12.14539884 -29.28289453 17.78771701 -46 17 C-46 16.01 -46 15.02 -46 14 C-44.72125 13.87625 -43.4425 13.7525 -42.125 13.625 C-34.85094708 12.8116807 -27.91638776 11.41269341 -21 9 C-17.79248913 8.23630694 -15.34720895 8 -12 8 C-11.79375 7.360625 -11.5875 6.72125 -11.375 6.0625 C-10.92125 5.381875 -10.4675 4.70125 -10 4 C-8.01014051 3.61067967 -6.00800456 3.28112064 -4 3 C-1.67780342 1.55269907 -1.67780342 1.55269907 0 0 Z " fill="#7B1550" transform="translate(51,22)"/>
<path d="M0 0 C-1.31558703 1.02323436 -2.65368175 2.01755155 -4 3 C-4.70125 3.5775 -5.4025 4.155 -6.125 4.75 C-9.32756099 6.14241782 -10.39201372 5.952114 -13.75 5.4375 C-18.75347376 4.72378012 -21.49014467 5.80588138 -25.90234375 8.078125 C-28.96069006 9.42220271 -31.70902806 9.18986377 -35 9 C-36.67293936 9.30027117 -38.33985384 9.63557767 -40 10 C-42.66315024 10.36905078 -45.32990742 10.68320935 -48 11 C-48 10.34 -48 9.68 -48 9 C-43.76598571 7.38704217 -40.49069968 7 -36 7 C-34.31422289 6.38325228 -32.64551962 5.71727778 -31 5 C-29.33871537 4.64080332 -27.67099977 4.31088368 -26 4 C-24.04162981 3.51843356 -22.0834233 3.03603647 -20.12890625 2.5390625 C-18.68024923 2.17224659 -17.22961827 1.81315874 -15.77734375 1.4609375 C-6.11815972 -0.88811996 -6.11815972 -0.88811996 0 0 Z " fill="#A41161" transform="translate(54,21)"/>
<path d="M0 0 C0.265625 2.2890625 0.265625 2.2890625 0 5 C-1.765625 6.7734375 -1.765625 6.7734375 -4.25 8.375 C-5.1575 8.9628125 -6.065 9.550625 -7 10.15625 C-7.99 10.7646875 -8.98 11.373125 -10 12 C-11.03125 12.6496875 -12.0625 13.299375 -13.125 13.96875 C-18.15483001 17.03694631 -22.07057674 19.31583578 -28 20 C-28.33 19.34 -28.66 18.68 -29 18 C-28.48050781 17.74605469 -27.96101563 17.49210937 -27.42578125 17.23046875 C-24.26124911 15.66867562 -21.18680402 14.11623362 -18.1875 12.25 C-16 11 -16 11 -13 11 C-13 10.34 -13 9.68 -13 9 C-11.59228115 8.02800365 -10.17822292 7.06363794 -8.73046875 6.15234375 C-6.93556932 4.95709469 -5.32601433 3.6504735 -3.6875 2.25 C-1 0 -1 0 0 0 Z " fill="#D5392C" transform="translate(31,61)"/>
<path d="M0 0 C0.66 0 1.32 0 2 0 C1.875 1.875 1.875 1.875 1 4 C-3.65735033 6.32867516 -6.98813079 5.82012405 -12 5 C-14.51599015 5.33652369 -14.51599015 5.33652369 -17 6 C-18.670625 6.2165625 -18.670625 6.2165625 -20.375 6.4375 C-24.03937072 7.00610925 -27.4417072 7.97356938 -31 9 C-31.99 9 -32.98 9 -34 9 C-34 8.34 -34 7.68 -34 7 C-25.30057127 3.64205175 -17.53700382 2.49853373 -8.27416992 2.32836914 C-3.659564 2.45034629 -3.659564 2.45034629 0 0 Z " fill="#D21374" transform="translate(41,15)"/>
<path d="M0 0 C0 0.66 0 1.32 0 2 C-4.05447885 4.22030985 -7.42119107 5.42764888 -12 6 C-12.94875 6.165 -13.8975 6.33 -14.875 6.5 C-18.57546816 7.09207491 -22.27951831 7.55097635 -26 8 C-22.68847037 3.99856836 -19.0254576 2.05607442 -14 1 C-11.84375 1.109375 -11.84375 1.109375 -9.75 1.4375 C-5.3101593 2.1034761 -3.91970554 0 0 0 Z " fill="#B11267" transform="translate(32,22)"/>
<path d="M0 0 C0.66 0.33 1.32 0.66 2 1 C-2.56021343 10.0961704 -7.20746497 18.32226758 -14 26 C-14.99 25.67 -15.98 25.34 -17 25 C-16.67 24.34 -16.34 23.68 -16 23 C-15.34 23 -14.68 23 -14 23 C-13.731875 22.195625 -13.46375 21.39125 -13.1875 20.5625 C-12.5996875 19.2940625 -12.5996875 19.2940625 -12 18 C-11.01 17.67 -10.02 17.34 -9 17 C-7.83046584 14.57616923 -7.83046584 14.57616923 -7 12 C-6.67 11.34 -6.34 10.68 -6 10 C-5.34 10 -4.68 10 -4 10 C-3.71125 9.0925 -3.4225 8.185 -3.125 7.25 C-2.23468224 4.67797092 -1.28505587 2.38653234 0 0 Z " fill="#DC4D37" transform="translate(54,31)"/>
<path d="M0 0 C-7.38584933 3.97699579 -13.74214286 4.24052011 -22 4 C-22 3.01 -22 2.02 -22 1 C-19.45847098 0.83096719 -16.91681012 0.66470573 -14.375 0.5 C-13.30572266 0.42845703 -13.30572266 0.42845703 -12.21484375 0.35546875 C-8.13492439 0.09345558 -4.09108781 -0.05162256 0 0 Z " fill="#781D49" transform="translate(27,35)"/>
<path d="M0 0 C1.2065625 0.0309375 1.2065625 0.0309375 2.4375 0.0625 C2.1075 1.0525 1.7775 2.0425 1.4375 3.0625 C-0.1403125 3.2790625 -0.1403125 3.2790625 -1.75 3.5 C-3.90502452 3.81795444 -6.0575003 4.16857149 -8.1875 4.625 C-10.69445919 5.08680827 -13.01911228 5.13516822 -15.5625 5.0625 C-15.5625 4.4025 -15.5625 3.7425 -15.5625 3.0625 C-11.42525742 1.0565642 -8.11800345 0.97489416 -3.5625 1.0625 C-2.5625 0.0625 -2.5625 0.0625 0 0 Z " fill="#92115A" transform="translate(21.5625,28.9375)"/>
<path d="M0 0 C1.98 0 3.96 0 6 0 C3.11861791 2.24107496 0.25320657 4.33168894 -3 6 C-3.99 5.67 -4.98 5.34 -6 5 C-5.34 4.34 -4.68 3.68 -4 3 C-3.01 3 -2.02 3 -1 3 C-0.67 2.01 -0.34 1.02 0 0 Z " fill="#9C115E" transform="translate(48,21)"/>
<path d="M0 0 C0.33 0.66 0.66 1.32 1 2 C-0.32 3.65 -1.64 5.3 -3 7 C-3.99 6.67 -4.98 6.34 -6 6 C-5.67 5.34 -5.34 4.68 -5 4 C-4.34 4 -3.68 4 -3 4 C-3 3.34 -3 2.68 -3 2 C-2.01 1.34 -1.02 0.68 0 0 Z " fill="#DA3327" transform="translate(43,50)"/>
</svg>
