<?xml version="1.0" encoding="UTF-8"?>
<svg version="1.1" xmlns="http://www.w3.org/2000/svg" width="55" height="59">
<path d="M0 0 C1.7325 0.1546875 1.7325 0.1546875 3.5 0.3125 C5.6519437 3.54041555 5.70086443 4.59650809 5.5 8.3125 C6.221875 8.539375 6.94375 8.76625 7.6875 9 C12.5337703 11.2615928 14.93599332 14.05506483 17.1171875 18.91796875 C19.00814202 24.19001253 18.96328919 29.3245149 19.02734375 34.86523438 C19.16402835 39.60497383 19.75142962 42.30047388 22.5 46.3125 C22.1 50.7125 22.1 50.7125 20.5 52.3125 C18.48035801 52.38494053 16.45832876 52.39627188 14.4375 52.375 C12.78041016 52.36146484 12.78041016 52.36146484 11.08984375 52.34765625 C10.23519531 52.33605469 9.38054688 52.32445312 8.5 52.3125 C8.30083984 53.24835937 8.30083984 53.24835937 8.09765625 54.203125 C7.5 56.3125 7.5 56.3125 5.9375 58.0625 C2.47481021 59.83823835 -0.74267613 60.13092698 -4.5 59.3125 C-7.5 56.9375 -7.5 56.9375 -9.5 54.3125 C-9.5 53.6525 -9.5 52.9925 -9.5 52.3125 C-10.78197266 52.32990234 -10.78197266 52.32990234 -12.08984375 52.34765625 C-13.19457031 52.35667969 -14.29929687 52.36570313 -15.4375 52.375 C-16.53964844 52.38660156 -17.64179688 52.39820313 -18.77734375 52.41015625 C-21.5 52.3125 -21.5 52.3125 -22.5 51.3125 C-22.75 48 -22.75 48 -22.5 44.3125 C-22.00886719 43.77882812 -21.51773437 43.24515625 -21.01171875 42.6953125 C-18.2396209 38.32585595 -19.06425692 32.89117127 -19.06054688 27.84179688 C-18.92959416 21.80442536 -18.00616938 18.27260383 -14.5 13.3125 C-12.22528589 11.25442533 -10.2327618 9.6788809 -7.5 8.3125 C-6.82060826 6.31678677 -6.15438441 4.31655227 -5.5 2.3125 C-3.5 0.3125 -3.5 0.3125 0 0 Z M-0.5 4.3125 C-0.83 5.3025 -1.16 6.2925 -1.5 7.3125 C-0.84 7.3125 -0.18 7.3125 0.5 7.3125 C0.17 6.3225 -0.16 5.3325 -0.5 4.3125 Z M-12.3125 18.25 C-15.43530317 23.67381603 -14.79129474 30.62946847 -14.9296875 36.71875 C-14.960625 37.4921875 -14.9915625 38.265625 -15.0234375 39.0625 C-15.04325684 39.75859375 -15.06307617 40.4546875 -15.08349609 41.171875 C-15.5 43.3125 -15.5 43.3125 -18.5 48.3125 C-6.62 48.3125 5.26 48.3125 17.5 48.3125 C16.84 46.9925 16.18 45.6725 15.5 44.3125 C14.33454789 41.98159578 14.36105093 40.54886655 14.32421875 37.953125 C14.28844727 36.64988281 14.28844727 36.64988281 14.25195312 35.3203125 C14.20935492 33.49762571 14.17790498 31.67464055 14.15820312 29.8515625 C13.9380898 22.91031429 12.45853235 19.74439752 7.9375 14.5 C4.89540378 11.98696399 1.37189662 11.97832578 -2.4375 12.02734375 C-6.69149553 12.61549086 -9.47422776 15.21598485 -12.3125 18.25 Z M-4.5 52.3125 C-3.51 53.3025 -2.52 54.2925 -1.5 55.3125 C0.15 54.6525 1.8 53.9925 3.5 53.3125 C3.5 52.9825 3.5 52.6525 3.5 52.3125 C0.86 52.3125 -1.78 52.3125 -4.5 52.3125 Z " fill="#6F6F6F" transform="translate(27.5,-0.3125)"/>
<path d="M0 0 C4.28887049 0.1046066 6.59065785 1.17889191 9.625 4.0625 C15.77365348 10.75528211 17.63125605 17.00264753 18 26 C16.68 26.33 15.36 26.66 14 27 C13.5978125 25.515 13.5978125 25.515 13.1875 24 C12.99671875 23.35933594 12.8059375 22.71867187 12.609375 22.05859375 C12.21488843 20.72593719 11.84828486 19.38457486 11.515625 18.03515625 C9.82607919 12.27015197 6.55954838 9.48456366 1.86328125 5.859375 C1.24839844 5.24578125 0.63351563 4.6321875 0 4 C0 2.68 0 1.36 0 0 Z " fill="#707070" transform="translate(37,1)"/>
<path d="M0 0 C0 0.99 0 1.98 0 3 C-1.609375 4.32421875 -1.609375 4.32421875 -3.75 5.6875 C-10.71958738 10.67806874 -12.57866057 18.07561642 -15 26 C-15.99 25.67 -16.98 25.34 -18 25 C-18.61043053 17.43066149 -17.30847641 12.3073609 -13 6 C-6.15761984 -1.84942401 -6.15761984 -1.84942401 0 0 Z " fill="#707070" transform="translate(18,2)"/>
</svg>
