<?xml version="1.0" encoding="UTF-8"?>
<svg version="1.1" xmlns="http://www.w3.org/2000/svg" width="102" height="102">
<path d="M0 0 C1.32825806 0.00845947 1.32825806 0.00845947 2.68334961 0.01708984 C8.93974538 0.1335791 14.3869186 0.65635631 20.125 3.3125 C20.99898438 3.69148437 21.87296875 4.07046875 22.7734375 4.4609375 C37.20187738 11.45287055 45.13587413 22.90924119 50.28515625 37.62890625 C53.51034444 51.77473168 51.36709818 65.79579653 44.5 78.4375 C36.35796798 91.05562425 24.7690246 98.98572583 10.125 102.3125 C-6.74159344 103.95766144 -21.13433959 101.06654202 -34.47265625 90.1953125 C-43.79671702 81.61661405 -50.57899163 69.53274605 -51.2109375 56.67578125 C-51.51231467 39.84833737 -48.03414428 26.7205432 -36.3125 14.125 C-25.94786652 4.1980886 -14.10867801 -0.09388796 0 0 Z " fill="#F2F2F2" transform="translate(50.875,-0.3125)"/>
<path d="M0 0 C5.51174769 3.26423893 9.81356053 8.04134585 12.88671875 13.62890625 C13.51171875 16.12890625 13.51171875 16.12890625 13.51171875 23.12890625 C-1.66828125 23.12890625 -16.84828125 23.12890625 -32.48828125 23.12890625 C-32.48828125 15.26844529 -31.72527935 11.4944494 -26.32421875 5.87890625 C-18.78564052 -0.99666999 -10.14602375 -3.5519047 0 0 Z " fill="#F1F1F1" transform="translate(60.48828125,53.87109375)"/>
<path d="M0 0 C3.20083553 1.64614399 5.24803524 3.97459352 7.375 6.875 C8.73624093 11.50321917 8.54963256 15.46416166 6.375 19.75 C4.16489942 23.2008588 1.93735477 24.68754841 -2 26 C-6.24620247 26.53077531 -8.40893024 26.29553488 -12.25 24.375 C-16.35422338 20.83044344 -17.76759618 17.85923054 -18.4375 12.5 C-17.82419389 7.59355115 -15.82551289 4.63130939 -12.1640625 1.359375 C-8.33973723 -1.04290874 -4.35166726 -0.74129348 0 0 Z " fill="#EFEFEF" transform="translate(56,25)"/>
<path d="M0 0 C5.51174769 3.26423893 9.81356053 8.04134585 12.88671875 13.62890625 C13.51171875 16.12890625 13.51171875 16.12890625 13.51171875 23.12890625 C-1.66828125 23.12890625 -16.84828125 23.12890625 -32.48828125 23.12890625 C-32.48828125 15.26844529 -31.72527935 11.4944494 -26.32421875 5.87890625 C-18.78564052 -0.99666999 -10.14602375 -3.5519047 0 0 Z M-25.86328125 9.69140625 C-28.46518868 13.59426739 -29.48828125 15.32315917 -29.48828125 20.12890625 C-16.28828125 20.12890625 -3.08828125 20.12890625 10.51171875 20.12890625 C9.41571624 13.55289118 7.92253117 10.35427156 3.07421875 5.87890625 C-7.08628107 -1.05997167 -17.78086216 0.97090144 -25.86328125 9.69140625 Z " fill="#787878" transform="translate(60.48828125,53.87109375)"/>
<path d="M0 0 C3.20083553 1.64614399 5.24803524 3.97459352 7.375 6.875 C8.73624093 11.50321917 8.54963256 15.46416166 6.375 19.75 C4.16489942 23.2008588 1.93735477 24.68754841 -2 26 C-6.24620247 26.53077531 -8.40893024 26.29553488 -12.25 24.375 C-16.35422338 20.83044344 -17.76759618 17.85923054 -18.4375 12.5 C-17.82419389 7.59355115 -15.82551289 4.63130939 -12.1640625 1.359375 C-8.33973723 -1.04290874 -4.35166726 -0.74129348 0 0 Z M-11.875 5.0625 C-14.41733802 8.57690844 -15 10.67500571 -15 15 C-13.63571607 17.92346557 -12.27249091 19.72750909 -10 22 C-5.61255899 22.74129652 -1.98191697 22.49095849 2 20.5 C4.70163607 17.12295491 5.43786872 14.30433216 5 10 C2.59487216 5.25852586 2.59487216 5.25852586 -2 3 C-6.33144485 2.51872835 -8.2849491 2.48702871 -11.875 5.0625 Z " fill="#7A7A7A" transform="translate(56,25)"/>
<path d="M0 0 C0.33 0 0.66 0 1 0 C1 1.65 1 3.3 1 5 C-13.85 5 -28.7 5 -44 5 C-44 4.34 -44 3.68 -44 3 C-29.81 3 -15.62 3 -1 3 C-0.67 2.01 -0.34 1.02 0 0 Z " fill="#6F6F6F" transform="translate(73,72)"/>
<path d="M0 0 C0.99 0.495 0.99 0.495 2 1 C2 1.66 2 2.32 2 3 C2.66 3 3.32 3 4 3 C5.04892238 4.63631892 6.04906703 6.30485863 7 8 C8.05978933 9.28612676 8.05978933 9.28612676 10.50390625 9.09765625 C11.51324219 9.08605469 12.52257812 9.07445312 13.5625 9.0625 C14.57441406 9.05347656 15.58632813 9.04445313 16.62890625 9.03515625 C17.41136719 9.02355469 18.19382812 9.01195312 19 9 C19 9.99 19 10.98 19 12 C15.24543433 14.50304378 13.45254066 14.45280074 9 14 C4.1222989 11.56114945 1.91150091 9.09733576 0 4 C0 2.68 0 1.36 0 0 Z " fill="#7F7F7F" transform="translate(38,37)"/>
<path d="M0 0 C0 0.99 0 1.98 0 3 C-3.47325181 4.1577506 -6.36067448 4.06866652 -10 4 C-10.33 2.68 -10.66 1.36 -11 0 C-9.54263913 -0.19491452 -8.08405407 -0.38069358 -6.625 -0.5625 C-5.81289063 -0.66691406 -5.00078125 -0.77132812 -4.1640625 -0.87890625 C-2 -1 -2 -1 0 0 Z " fill="#868686" transform="translate(57,47)"/>
<path d="M0 0 C-0.99 0.66 -1.98 1.32 -3 2 C-3.680625 2.53625 -4.36125 3.0725 -5.0625 3.625 C-7 5 -7 5 -9 5 C-8.1875 2.5625 -8.1875 2.5625 -7 0 C-3.86650268 -1.04449911 -3.01031744 -0.93423645 0 0 Z " fill="#7F7F7F" transform="translate(48,54)"/>
</svg>
